<?xml version="1.0" encoding="UTF-8" standalone="no"?>
<!DOCTYPE svg PUBLIC "-//W3C//DTD SVG 1.1//EN"
 "http://www.w3.org/Graphics/SVG/1.1/DTD/svg11.dtd">
<!-- Generated by graphviz version 2.43.0 (0)
 -->
<!-- Title: MRV_Functional_Flow Pages: 1 -->
<svg width="1442pt" height="880pt"
 viewBox="0.00 0.00 1442.38 880.00" xmlns="http://www.w3.org/2000/svg" xmlns:xlink="http://www.w3.org/1999/xlink">
<g id="graph0" class="graph" transform="scale(1 1) rotate(0) translate(4 876)">
<title>MRV_Functional_Flow</title>
<polygon fill="white" stroke="transparent" points="-4,4 -4,-876 1438.38,-876 1438.38,4 -4,4"/>
<g id="clust1" class="cluster">
<title>cluster_web</title>
<path fill="none" stroke="black" d="M384.38,-691C384.38,-691 574.38,-691 574.38,-691 580.38,-691 586.38,-697 586.38,-703 586.38,-703 586.38,-784 586.38,-784 586.38,-790 580.38,-796 574.38,-796 574.38,-796 384.38,-796 384.38,-796 378.38,-796 372.38,-790 372.38,-784 372.38,-784 372.38,-703 372.38,-703 372.38,-697 378.38,-691 384.38,-691"/>
<text text-anchor="middle" x="479.38" y="-782.4" font-family="Times,serif" font-size="12.00">Frontend (Angular 20)</text>
</g>
<g id="clust2" class="cluster">
<title>cluster_api</title>
<path fill="none" stroke="black" d="M402.88,-278C402.88,-278 1399.38,-278 1399.38,-278 1405.38,-278 1411.38,-284 1411.38,-290 1411.38,-290 1411.38,-657 1411.38,-657 1411.38,-663 1405.38,-669 1399.38,-669 1399.38,-669 402.88,-669 402.88,-669 396.88,-669 390.88,-663 390.88,-657 390.88,-657 390.88,-290 390.88,-290 390.88,-284 396.88,-278 402.88,-278"/>
<text text-anchor="middle" x="901.13" y="-655.4" font-family="Times,serif" font-size="12.00">API (NestJS)</text>
</g>
<g id="clust3" class="cluster">
<title>cluster_data</title>
<path fill="none" stroke="black" d="M1216.38,-8C1216.38,-8 1414.38,-8 1414.38,-8 1420.38,-8 1426.38,-14 1426.38,-20 1426.38,-20 1426.38,-258 1426.38,-258 1426.38,-264 1420.38,-270 1414.38,-270 1414.38,-270 1216.38,-270 1216.38,-270 1210.38,-270 1204.38,-264 1204.38,-258 1204.38,-258 1204.38,-20 1204.38,-20 1204.38,-14 1210.38,-8 1216.38,-8"/>
<text text-anchor="middle" x="1315.38" y="-256.4" font-family="Times,serif" font-size="12.00">Data Stores</text>
</g>
<g id="clust4" class="cluster">
<title>cluster_ext</title>
<path fill="none" stroke="black" d="M1235.88,-677C1235.88,-677 1394.88,-677 1394.88,-677 1400.88,-677 1406.88,-683 1406.88,-689 1406.88,-689 1406.88,-852 1406.88,-852 1406.88,-858 1400.88,-864 1394.88,-864 1394.88,-864 1235.88,-864 1235.88,-864 1229.88,-864 1223.88,-858 1223.88,-852 1223.88,-852 1223.88,-689 1223.88,-689 1223.88,-683 1229.88,-677 1235.88,-677"/>
<text text-anchor="middle" x="1315.38" y="-850.4" font-family="Times,serif" font-size="12.00">External / Infra</text>
</g>
<!-- user -->
<g id="node1" class="node">
<title>user</title>
<ellipse fill="none" stroke="black" cx="109.19" cy="-733" rx="109.38" ry="18"/>
<text text-anchor="middle" x="109.19" y="-729.3" font-family="Times,serif" font-size="14.00">Analyst / Admin User</text>
</g>
<!-- web -->
<g id="node2" class="node">
<title>web</title>
<polygon fill="none" stroke="black" points="578.38,-767 380.38,-767 380.38,-699 578.38,-699 578.38,-767"/>
<text text-anchor="middle" x="479.38" y="-751.8" font-family="Times,serif" font-size="14.00">Web App (SPA)</text>
<text text-anchor="middle" x="479.38" y="-736.8" font-family="Times,serif" font-size="14.00">&#45; Login &amp; RBAC&#45;aware UI</text>
<text text-anchor="middle" x="479.38" y="-721.8" font-family="Times,serif" font-size="14.00">&#45; Dashboards &amp; Reports</text>
<text text-anchor="middle" x="479.38" y="-706.8" font-family="Times,serif" font-size="14.00">&#45; Admin (Users/Roles)</text>
</g>
<!-- user&#45;&gt;web -->
<g id="edge1" class="edge">
<title>user&#45;&gt;web</title>
<path fill="none" stroke="black" d="M218.67,-733C266.4,-733 322.33,-733 370.04,-733"/>
<polygon fill="black" stroke="black" points="370.09,-736.5 380.09,-733 370.09,-729.5 370.09,-736.5"/>
<text text-anchor="middle" x="299.38" y="-736.8" font-family="Times,serif" font-size="14.00">Browser (HTTPS)</text>
</g>
<!-- auth -->
<g id="node3" class="node">
<title>auth</title>
<polygon fill="none" stroke="black" points="559.88,-576 398.88,-576 398.88,-572 394.88,-572 394.88,-568 398.88,-568 398.88,-516 394.88,-516 394.88,-512 398.88,-512 398.88,-508 559.88,-508 559.88,-576"/>
<polyline fill="none" stroke="black" points="398.88,-572 402.88,-572 402.88,-568 398.88,-568 "/>
<polyline fill="none" stroke="black" points="398.88,-516 402.88,-516 402.88,-512 398.88,-512 "/>
<text text-anchor="middle" x="479.38" y="-560.8" font-family="Times,serif" font-size="14.00">Auth &amp; RBAC</text>
<text text-anchor="middle" x="479.38" y="-545.8" font-family="Times,serif" font-size="14.00">&#45; JWT Access</text>
<text text-anchor="middle" x="479.38" y="-530.8" font-family="Times,serif" font-size="14.00">&#45; Refresh Cookie</text>
<text text-anchor="middle" x="479.38" y="-515.8" font-family="Times,serif" font-size="14.00">&#45; Guards/Decorators</text>
</g>
<!-- web&#45;&gt;auth -->
<g id="edge2" class="edge">
<title>web&#45;&gt;auth</title>
<path fill="none" stroke="black" d="M479.38,-698.83C479.38,-667.41 479.38,-620.65 479.38,-586.36"/>
<polygon fill="black" stroke="black" points="482.88,-586.15 479.38,-576.15 475.88,-586.15 482.88,-586.15"/>
<text text-anchor="middle" x="461.38" y="-641.3" font-family="Times,serif" font-size="14.00">API (HTTPS)</text>
<text text-anchor="middle" x="461.38" y="-626.3" font-family="Times,serif" font-size="14.00">/login /refresh /me</text>
</g>
<!-- ingest -->
<g id="node6" class="node">
<title>ingest</title>
<polygon fill="none" stroke="black" points="987.88,-497.5 812.88,-497.5 812.88,-444.5 987.88,-444.5 987.88,-497.5"/>
<text text-anchor="middle" x="900.38" y="-482.3" font-family="Times,serif" font-size="14.00">Activity Ingestion</text>
<text text-anchor="middle" x="900.38" y="-467.3" font-family="Times,serif" font-size="14.00">&#45; Upload/Validate/Map</text>
<text text-anchor="middle" x="900.38" y="-452.3" font-family="Times,serif" font-size="14.00">&#45; Job Status &amp; Errors</text>
</g>
<!-- web&#45;&gt;ingest -->
<g id="edge10" class="edge">
<title>web&#45;&gt;ingest</title>
<path fill="none" stroke="black" d="M578.67,-703.99C654.74,-679.54 751.37,-643.47 777.38,-611 806.98,-574.05 764.59,-541.97 795.38,-506 798.17,-502.74 801.27,-499.79 804.61,-497.11"/>
<polygon fill="black" stroke="black" points="806.63,-499.96 812.79,-491.34 802.6,-494.24 806.63,-499.96"/>
<text text-anchor="middle" x="686.88" y="-698.8" font-family="Times,serif" font-size="14.00">Upload (presigned)</text>
</g>
<!-- cdn -->
<g id="node13" class="node">
<title>cdn</title>
<polygon fill="none" stroke="black" points="1388.38,-835 1242.38,-835 1242.38,-797 1388.38,-797 1388.38,-835"/>
<text text-anchor="middle" x="1315.38" y="-819.8" font-family="Times,serif" font-size="14.00">CDN (CloudFront)</text>
<text text-anchor="middle" x="1315.38" y="-804.8" font-family="Times,serif" font-size="14.00">[Prod]</text>
</g>
<!-- web&#45;&gt;cdn -->
<g id="edge20" class="edge">
<title>web&#45;&gt;cdn</title>
<path fill="none" stroke="black" stroke-dasharray="5,2" d="M549.92,-767.02C564.92,-773.03 580.92,-778.49 596.38,-782 821.87,-833.25 1097.1,-828.12 1231.93,-821.38"/>
<polygon fill="black" stroke="black" points="1232.37,-824.86 1242.18,-820.85 1232.01,-817.87 1232.37,-824.86"/>
<text text-anchor="middle" x="900.38" y="-828.8" font-family="Times,serif" font-size="14.00">static assets [prod]</text>
</g>
<!-- users -->
<g id="node4" class="node">
<title>users</title>
<polygon fill="none" stroke="black" points="988.38,-639.5 812.38,-639.5 812.38,-586.5 988.38,-586.5 988.38,-639.5"/>
<text text-anchor="middle" x="900.38" y="-624.3" font-family="Times,serif" font-size="14.00">User Admin</text>
<text text-anchor="middle" x="900.38" y="-609.3" font-family="Times,serif" font-size="14.00">&#45; Create/Disable/Reset</text>
<text text-anchor="middle" x="900.38" y="-594.3" font-family="Times,serif" font-size="14.00">&#45; Roles</text>
</g>
<!-- auth&#45;&gt;users -->
<g id="edge3" class="edge">
<title>auth&#45;&gt;users</title>
<path fill="none" stroke="black" d="M560.18,-555.52C629,-567.18 728.62,-584.06 802.1,-596.52"/>
<polygon fill="black" stroke="black" points="801.85,-600.02 812.29,-598.24 803.02,-593.12 801.85,-600.02"/>
<text text-anchor="middle" x="686.88" y="-595.8" font-family="Times,serif" font-size="14.00">RBAC gate</text>
</g>
<!-- catalog -->
<g id="node5" class="node">
<title>catalog</title>
<polygon fill="none" stroke="black" points="1004.38,-339.5 796.38,-339.5 796.38,-286.5 1004.38,-286.5 1004.38,-339.5"/>
<text text-anchor="middle" x="900.38" y="-324.3" font-family="Times,serif" font-size="14.00">Factor Catalog</text>
<text text-anchor="middle" x="900.38" y="-309.3" font-family="Times,serif" font-size="14.00">&#45; Factors/Units/Sources</text>
<text text-anchor="middle" x="900.38" y="-294.3" font-family="Times,serif" font-size="14.00">&#45; Versioning &amp; Traceability</text>
</g>
<!-- auth&#45;&gt;catalog -->
<g id="edge4" class="edge">
<title>auth&#45;&gt;catalog</title>
<path fill="none" stroke="black" d="M499.63,-507.71C519.69,-475.06 554.08,-426.89 596.38,-399 653.14,-361.58 726.23,-340.22 786.41,-328.15"/>
<polygon fill="black" stroke="black" points="787.19,-331.56 796.33,-326.22 785.85,-324.69 787.19,-331.56"/>
<text text-anchor="middle" x="686.88" y="-402.8" font-family="Times,serif" font-size="14.00">RBAC gate</text>
</g>
<!-- auth&#45;&gt;ingest -->
<g id="edge5" class="edge">
<title>auth&#45;&gt;ingest</title>
<path fill="none" stroke="black" d="M560.18,-528.48C629.12,-516.8 728.95,-499.88 802.47,-487.42"/>
<polygon fill="black" stroke="black" points="803.38,-490.82 812.66,-485.7 802.21,-483.92 803.38,-490.82"/>
<text text-anchor="middle" x="686.88" y="-525.8" font-family="Times,serif" font-size="14.00">RBAC gate</text>
</g>
<!-- calc -->
<g id="node7" class="node">
<title>calc</title>
<polygon fill="none" stroke="black" points="986.88,-426 813.88,-426 813.88,-358 986.88,-358 986.88,-426"/>
<text text-anchor="middle" x="900.38" y="-410.8" font-family="Times,serif" font-size="14.00">Calculation Engine</text>
<text text-anchor="middle" x="900.38" y="-395.8" font-family="Times,serif" font-size="14.00">&#45; Scope 1/2/3</text>
<text text-anchor="middle" x="900.38" y="-380.8" font-family="Times,serif" font-size="14.00">&#45; CO₂e &amp; Uncertainty</text>
<text text-anchor="middle" x="900.38" y="-365.8" font-family="Times,serif" font-size="14.00">&#45; Recompute Strategy</text>
</g>
<!-- auth&#45;&gt;calc -->
<g id="edge6" class="edge">
<title>auth&#45;&gt;calc</title>
<path fill="none" stroke="black" d="M530.75,-507.92C550.57,-495.63 573.92,-482.47 596.38,-473 663.4,-444.75 742.96,-423.93 803.74,-410.48"/>
<polygon fill="black" stroke="black" points="804.69,-413.85 813.71,-408.3 803.2,-407.01 804.69,-413.85"/>
<text text-anchor="middle" x="686.88" y="-476.8" font-family="Times,serif" font-size="14.00">RBAC gate</text>
</g>
<!-- report -->
<g id="node8" class="node">
<title>report</title>
<polygon fill="none" stroke="black" points="1005.38,-568.5 795.38,-568.5 795.38,-515.5 1005.38,-515.5 1005.38,-568.5"/>
<text text-anchor="middle" x="900.38" y="-553.3" font-family="Times,serif" font-size="14.00">Inventory &amp; Reporting</text>
<text text-anchor="middle" x="900.38" y="-538.3" font-family="Times,serif" font-size="14.00">&#45; Org/Project/Asset</text>
<text text-anchor="middle" x="900.38" y="-523.3" font-family="Times,serif" font-size="14.00">&#45; Period Reports &amp; Exports</text>
</g>
<!-- auth&#45;&gt;report -->
<g id="edge7" class="edge">
<title>auth&#45;&gt;report</title>
<path fill="none" stroke="black" d="M560.18,-542C623.77,-542 713.65,-542 784.91,-542"/>
<polygon fill="black" stroke="black" points="785.29,-545.5 795.29,-542 785.29,-538.5 785.29,-545.5"/>
<text text-anchor="middle" x="686.88" y="-545.8" font-family="Times,serif" font-size="14.00">RBAC gate</text>
</g>
<!-- ecs -->
<g id="node14" class="node">
<title>ecs</title>
<polygon fill="none" stroke="black" points="1390.38,-779 1240.38,-779 1240.38,-741 1390.38,-741 1390.38,-779"/>
<text text-anchor="middle" x="1315.38" y="-763.8" font-family="Times,serif" font-size="14.00">ECS Fargate / ALB</text>
<text text-anchor="middle" x="1315.38" y="-748.8" font-family="Times,serif" font-size="14.00">[Prod]</text>
</g>
<!-- auth&#45;&gt;ecs -->
<g id="edge21" class="edge">
<title>auth&#45;&gt;ecs</title>
<path fill="none" stroke="black" stroke-dasharray="5,2" d="M529.34,-576.04C549.36,-588.63 573.23,-602 596.38,-611 816.05,-696.36 1093.47,-736.18 1230.25,-751.69"/>
<polygon fill="black" stroke="black" points="1229.92,-755.17 1240.25,-752.81 1230.7,-748.22 1229.92,-755.17"/>
<text text-anchor="middle" x="900.38" y="-721.8" font-family="Times,serif" font-size="14.00">service [prod]</text>
</g>
<!-- smtp -->
<g id="node12" class="node">
<title>smtp</title>
<polygon fill="none" stroke="black" points="1398.88,-723 1231.88,-723 1231.88,-685 1398.88,-685 1398.88,-723"/>
<text text-anchor="middle" x="1315.38" y="-707.8" font-family="Times,serif" font-size="14.00">SMTP (Mailhog/SES)</text>
<text text-anchor="middle" x="1315.38" y="-692.8" font-family="Times,serif" font-size="14.00">&#45; Invites/Resets</text>
</g>
<!-- users&#45;&gt;smtp -->
<g id="edge18" class="edge">
<title>users&#45;&gt;smtp</title>
<path fill="none" stroke="black" d="M988.42,-600.8C1051.87,-596.78 1136.51,-602.13 1194.38,-647 1204.16,-654.59 1195.23,-664.66 1204.38,-673 1209.82,-677.96 1216,-682.14 1222.59,-685.65"/>
<polygon fill="black" stroke="black" points="1221.26,-688.89 1231.79,-690.04 1224.27,-682.57 1221.26,-688.89"/>
<text text-anchor="middle" x="1108.88" y="-650.8" font-family="Times,serif" font-size="14.00">invites/resets</text>
</g>
<!-- mongo -->
<g id="node10" class="node">
<title>mongo</title>
<path fill="none" stroke="black" d="M1409.38,-138.02C1409.38,-144.77 1367.25,-150.25 1315.38,-150.25 1263.51,-150.25 1221.38,-144.77 1221.38,-138.02 1221.38,-138.02 1221.38,-27.98 1221.38,-27.98 1221.38,-21.23 1263.51,-15.75 1315.38,-15.75 1367.25,-15.75 1409.38,-21.23 1409.38,-27.98 1409.38,-27.98 1409.38,-138.02 1409.38,-138.02"/>
<path fill="none" stroke="black" d="M1409.38,-138.02C1409.38,-131.28 1367.25,-125.8 1315.38,-125.8 1263.51,-125.8 1221.38,-131.28 1221.38,-138.02"/>
<text text-anchor="middle" x="1315.38" y="-116.8" font-family="Times,serif" font-size="14.00">MongoDB 8 (Mongoose)</text>
<text text-anchor="middle" x="1315.38" y="-101.8" font-family="Times,serif" font-size="14.00">&#45; Users</text>
<text text-anchor="middle" x="1315.38" y="-86.8" font-family="Times,serif" font-size="14.00">&#45; Factors</text>
<text text-anchor="middle" x="1315.38" y="-71.8" font-family="Times,serif" font-size="14.00">&#45; Activity Data</text>
<text text-anchor="middle" x="1315.38" y="-56.8" font-family="Times,serif" font-size="14.00">&#45; Results</text>
<text text-anchor="middle" x="1315.38" y="-41.8" font-family="Times,serif" font-size="14.00">&#45; Audit</text>
</g>
<!-- catalog&#45;&gt;mongo -->
<g id="edge8" class="edge">
<title>catalog&#45;&gt;mongo</title>
<path fill="none" stroke="black" d="M906.38,-286.37C917.39,-236.24 948.92,-128.88 1023.38,-84 1079.01,-50.47 1152.16,-50.37 1211.2,-58.57"/>
<polygon fill="black" stroke="black" points="1210.89,-62.07 1221.3,-60.08 1211.92,-55.14 1210.89,-62.07"/>
<text text-anchor="middle" x="1108.88" y="-87.8" font-family="Times,serif" font-size="14.00">CRUD</text>
</g>
<!-- ingest&#45;&gt;mongo -->
<g id="edge12" class="edge">
<title>ingest&#45;&gt;mongo</title>
<path fill="none" stroke="black" d="M988.11,-450.6C994.68,-446.35 1000.6,-441.2 1005.38,-435 1037.63,-393.17 987.13,-236.41 1023.38,-198 1076.01,-142.23 1129.34,-215.62 1194.38,-175 1201.18,-170.76 1198.78,-165.73 1204.38,-160 1207.36,-156.95 1210.47,-153.95 1213.69,-150.99"/>
<polygon fill="black" stroke="black" points="1216.19,-153.45 1221.36,-144.2 1211.55,-148.21 1216.19,-153.45"/>
<text text-anchor="middle" x="1108.88" y="-216.8" font-family="Times,serif" font-size="14.00">validated rows</text>
<text text-anchor="middle" x="1108.88" y="-201.8" font-family="Times,serif" font-size="14.00">+ mapping</text>
</g>
<!-- s3 -->
<g id="node11" class="node">
<title>s3</title>
<path fill="none" stroke="black" d="M1418.38,-234.76C1418.38,-238.41 1372.21,-241.38 1315.38,-241.38 1258.55,-241.38 1212.38,-238.41 1212.38,-234.76 1212.38,-234.76 1212.38,-175.24 1212.38,-175.24 1212.38,-171.59 1258.55,-168.62 1315.38,-168.62 1372.21,-168.62 1418.38,-171.59 1418.38,-175.24 1418.38,-175.24 1418.38,-234.76 1418.38,-234.76"/>
<path fill="none" stroke="black" d="M1418.38,-234.76C1418.38,-231.11 1372.21,-228.15 1315.38,-228.15 1258.55,-228.15 1212.38,-231.11 1212.38,-234.76"/>
<text text-anchor="middle" x="1315.38" y="-216.3" font-family="Times,serif" font-size="14.00">Object Storage (MinIO/S3)</text>
<text text-anchor="middle" x="1315.38" y="-201.3" font-family="Times,serif" font-size="14.00">&#45; Uploaded Files</text>
<text text-anchor="middle" x="1315.38" y="-186.3" font-family="Times,serif" font-size="14.00">&#45; Exports</text>
</g>
<!-- ingest&#45;&gt;s3 -->
<g id="edge11" class="edge">
<title>ingest&#45;&gt;s3</title>
<path fill="none" stroke="black" d="M988.29,-450.05C994.73,-445.91 1000.57,-440.94 1005.38,-435 1046.5,-384.17 977.41,-335.49 1023.38,-289 1050.34,-261.74 1157.77,-277.4 1194.38,-266 1210.98,-260.83 1228.07,-253.51 1243.96,-245.73"/>
<polygon fill="black" stroke="black" points="1245.79,-248.73 1253.16,-241.11 1242.65,-242.47 1245.79,-248.73"/>
<text text-anchor="middle" x="1108.88" y="-292.8" font-family="Times,serif" font-size="14.00">store files</text>
</g>
<!-- audit -->
<g id="node9" class="node">
<title>audit</title>
<polygon fill="none" stroke="black" points="1403.38,-394.5 1227.38,-394.5 1227.38,-341.5 1403.38,-341.5 1403.38,-394.5"/>
<text text-anchor="middle" x="1315.38" y="-379.3" font-family="Times,serif" font-size="14.00">Audit Log</text>
<text text-anchor="middle" x="1315.38" y="-364.3" font-family="Times,serif" font-size="14.00">&#45; Inputs/Outputs/Actor</text>
<text text-anchor="middle" x="1315.38" y="-349.3" font-family="Times,serif" font-size="14.00">&#45; Reproducibility</text>
</g>
<!-- calc&#45;&gt;audit -->
<g id="edge14" class="edge">
<title>calc&#45;&gt;audit</title>
<path fill="none" stroke="black" d="M986.95,-387.03C1053.95,-383.13 1147.17,-377.72 1217.01,-373.66"/>
<polygon fill="black" stroke="black" points="1217.36,-377.14 1227.14,-373.07 1216.95,-370.16 1217.36,-377.14"/>
<text text-anchor="middle" x="1108.88" y="-388.8" font-family="Times,serif" font-size="14.00">write trail</text>
</g>
<!-- calc&#45;&gt;mongo -->
<g id="edge13" class="edge">
<title>calc&#45;&gt;mongo</title>
<path fill="none" stroke="black" d="M987.33,-365.51C994.25,-360.62 1000.45,-354.84 1005.38,-348 1035.35,-306.4 987.72,-154.84 1023.38,-118 1049.97,-90.53 1156.43,-103.64 1194.38,-99 1199.86,-98.33 1205.47,-97.63 1211.14,-96.91"/>
<polygon fill="black" stroke="black" points="1211.9,-100.34 1221.38,-95.6 1211.02,-93.4 1211.9,-100.34"/>
<text text-anchor="middle" x="1108.88" y="-121.8" font-family="Times,serif" font-size="14.00">results + logs</text>
</g>
<!-- report&#45;&gt;web -->
<g id="edge19" class="edge">
<title>report&#45;&gt;web</title>
<path fill="none" stroke="black" d="M804.61,-568.69C801.25,-571.49 798.14,-574.58 795.38,-578 754.01,-629.19 826.08,-680.72 777.38,-725 727.57,-770.29 651.35,-771.48 588.6,-761.76"/>
<polygon fill="black" stroke="black" points="589.09,-758.3 578.65,-760.12 587.94,-765.2 589.09,-758.3"/>
<text text-anchor="middle" x="686.88" y="-769.8" font-family="Times,serif" font-size="14.00">dashboards &amp; downloads</text>
</g>
<!-- report&#45;&gt;mongo -->
<g id="edge16" class="edge">
<title>report&#45;&gt;mongo</title>
<path fill="none" stroke="black" d="M996.37,-515.49C999.68,-512.64 1002.71,-509.49 1005.38,-506 1040.46,-460.19 983.44,-288.63 1023.38,-247 1076.32,-191.82 1139.36,-281.11 1194.38,-228 1216.36,-206.79 1188.33,-185.99 1204.38,-160 1207.33,-155.23 1210.69,-150.67 1214.37,-146.33"/>
<polygon fill="black" stroke="black" points="1217.13,-148.5 1221.3,-138.76 1211.97,-143.77 1217.13,-148.5"/>
<text text-anchor="middle" x="1108.88" y="-250.8" font-family="Times,serif" font-size="14.00">query results &amp; activity</text>
</g>
<!-- report&#45;&gt;s3 -->
<g id="edge17" class="edge">
<title>report&#45;&gt;s3</title>
<path fill="none" stroke="black" d="M996.16,-515.32C999.52,-512.52 1002.62,-509.42 1005.38,-506 1047.27,-454.09 977.49,-405.41 1023.38,-357 1076.46,-301 1139.47,-381.21 1194.38,-327 1211.44,-310.16 1190.87,-293.8 1204.38,-274 1211.5,-263.57 1220.77,-254.39 1230.91,-246.43"/>
<polygon fill="black" stroke="black" points="1233.24,-249.06 1239.2,-240.3 1229.08,-243.43 1233.24,-249.06"/>
<text text-anchor="middle" x="1108.88" y="-360.8" font-family="Times,serif" font-size="14.00">export CSV/XLSX/PDF</text>
</g>
<!-- audit&#45;&gt;mongo -->
<g id="edge15" class="edge">
<title>audit&#45;&gt;mongo</title>
<path fill="none" stroke="black" d="M1227.16,-371.34C1187.4,-367.77 1143.67,-355.75 1117.88,-323.5 1068.02,-261.16 1141.5,-190.67 1212.55,-142.2"/>
<polygon fill="black" stroke="black" points="1214.84,-144.88 1221.2,-136.41 1210.94,-139.07 1214.84,-144.88"/>
<text text-anchor="middle" x="1108.88" y="-312.3" font-family="Times,serif" font-size="14.00">persist</text>
</g>
<!-- mongo&#45;&gt;calc -->
<g id="edge9" class="edge">
<title>mongo&#45;&gt;calc</title>
<path fill="none" stroke="black" d="M1221.35,-127.97C1212.36,-131.37 1203.28,-134.46 1194.38,-137 1157.51,-147.53 1049.97,-132.37 1023.38,-160 994.28,-190.24 1030.21,-314.16 1005.38,-348 1002.42,-352.04 999.01,-355.7 995.28,-359.04"/>
<polygon fill="black" stroke="black" points="992.88,-356.48 987.21,-365.42 997.22,-361.97 992.88,-356.48"/>
<text text-anchor="middle" x="1108.88" y="-163.8" font-family="Times,serif" font-size="14.00">factors (versioned)</text>
</g>
</g>
</svg>
